HIERARCHY
ROOT Hips
{
  OFFSET 100.201 96.4065 82.2496
  CHANNELS 6 Xposition Yposition Zposition Zrotation Xrotation Yrotation
  JOINT RightUpLeg
  {
    OFFSET -8.9458 -8.66707 0.101652
    CHANNELS 3 Zrotation Xrotation Yrotation
    JOINT RightLeg
    {
      OFFSET 0 -44.4227 1.3727
      CHANNELS 3 Zrotation Xrotation Yrotation
      JOINT RightFoot
      {
        OFFSET 0.253549 -42.0924 -1.46059
        CHANNELS 3 Zrotation Xrotation Yrotation
        JOINT RightToes
        {
          OFFSET 0.04 -4.41509 8.4991
          CHANNELS 3 Zrotation Xrotation Yrotation
          End Site
          {
            OFFSET -0.08 -0.137448 9.77979
          }
        }
      }
    }
  }
  JOINT Spine
  {
    OFFSET 0 11.8905 0
    CHANNELS 3 Zrotation Xrotation Yrotation
    JOINT Spine1
    {
      OFFSET 0 25.6574 0.127663
      CHANNELS 3 Zrotation Xrotation Yrotation
      JOINT HEad
      {
        OFFSET 0 8.73416 0.011341
        CHANNELS 3 Zrotation Xrotation Yrotation
        End Site
        {
          OFFSET -0.29 12.7742 2.51395
        }
      }
      JOINT LeftShoulder1
      {
        OFFSET 8.99 -0.362252 -0.22
        CHANNELS 3 Zrotation Xrotation Yrotation
        JOINT LeftArm
        {
          OFFSET 10.2827 -0.00338 0.322123
          CHANNELS 3 Zrotation Xrotation Yrotation
          JOINT LeftForeArm
          {
            OFFSET 32.7669 0.099144 -1.42434
            CHANNELS 3 Zrotation Xrotation Yrotation
            JOINT LeftHand
            {
              OFFSET 27.5643 0.085362 1.02216
              CHANNELS 3 Zrotation Xrotation Yrotation
              End Site
              {
                OFFSET 16.7443 -0.6 1.50291
              }
            }
          }
        }
      }
      JOINT RightShoulder
      {
        OFFSET -8.99 -0.362252 -0.22
        CHANNELS 3 Zrotation Xrotation Yrotation
        JOINT RightArm
        {
          OFFSET -10.2827 -0.00338 0.322123
          CHANNELS 3 Zrotation Xrotation Yrotation
          JOINT RightForeArm
          {
            OFFSET -32.8971 0.099144 -1.42434
            CHANNELS 3 Zrotation Xrotation Yrotation
            JOINT RightHand
            {
              OFFSET -27.4921 0.085362 1.02216
              CHANNELS 3 Zrotation Xrotation Yrotation
              End Site
              {
                OFFSET -16.6312 -0.6 1.50291
              }
            }
          }
        }
      }
    }
  }
  JOINT LeftUpLeg
  {
    OFFSET 8.9458 -8.66707 0.101652
    CHANNELS 3 Zrotation Xrotation Yrotation
    JOINT LeftLeg
    {
      OFFSET 0 -44.4227 1.3727
      CHANNELS 3 Zrotation Xrotation Yrotation
      JOINT LeftFoot
      {
        OFFSET -0.253549 -42.0924 -1.46059
        CHANNELS 3 Zrotation Xrotation Yrotation
        JOINT LeftToes
        {
          OFFSET -0.04 -4.41509 8.4991
          CHANNELS 3 Zrotation Xrotation Yrotation
          End Site
          {
            OFFSET 0.08 -0.047448 9.77979
          }
        }
      }
    }
  }
}
MOTION
Frames:	9
Frame Time:	0.0166667
30.7894	98.4202	-236.669	-9.04375	-4.17681	153.899	-4.69168	-27.5022	0.954373	30.7096	55.2184	-32.6547	10.6928	-11.6211	-24.3096	0.0462048	0.000533964	0.662642	-1.68592	-1.56575	-0.342292	-3.38305	-3.11793	-0.731065	4.85802	22.2052	3.11632	-1.19E-15	0	0	-73.1818	8.05099	18.7644	-4.71397	19.1664	-2.82723	-16.2332	5.33453	11.1249	-1.19E-15	0	0	56.965	26.669	2.42587	16.0934	-24.0926	113.373	-2.98716	4.70413	5.10611	-7.80459	-45.0506	2.77429	11.2769	38.8309	-27.0476	-13.6028	-13.326	-31.9819	1.51E-14	3.31E-14	6.36E-15
31.8053	97.1729	-237.399	-7.22056	-3.14471	152.697	-3.61329	-26.9614	1.75054	35.3585	58.0141	-37.3652	12.0747	-10.9924	-23.1382	0.0462048	0.000533964	0.662642	-1.2939	-1.2043	-0.190124	-2.59266	-2.40121	-0.40769	4.77673	22.492	2.93849	-9.94E-17	1.99E-16	6.36E-15	-72.7272	6.93984	21.8097	-5.21258	19.7938	-2.36768	-18.7921	5.75201	11.3991	-9.94E-17	1.99E-16	6.36E-15	55.8189	25.7722	2.96741	17.3386	-24.5827	116.398	-2.95902	4.41282	5.94491	-2.66553	-47.0801	-2.01868	4.15889	45.355	-15.1272	-14.4727	-10.5536	-34.4326	1.47E-14	3.26E-14	9.54E-15
32.7718	95.7295	-238.147	-8.17744	-3.28121	152.435	-5.59295	-29.2218	1.3009	42.4712	60.3668	-44.6114	12.8975	-10.5216	-22.289	0.0462048	0.000533964	0.662642	-1.56917	-1.29825	-0.35653	-3.1476	-2.58343	-0.748912	4.65763	21.5564	2.48914	1.99E-16	-1.99E-16	6.36E-15	-72.4747	6.75618	23.6578	-5.5367	19.6767	-2.58943	-20.865	5.54158	11.4706	1.99E-16	-1.99E-16	6.36E-15	54.902	23.9647	3.8267	18.3709	-24.7553	118.782	-3.28506	4.4456	6.96195	-2.6325	-49.8753	-1.36792	4.84891	47.9253	-15.4003	-14.3919	-7.3394	-33.658	1.27E-14	2.86E-14	1.27E-14
33.4943	93.9461	-238.352	-8.64531	-1.84007	150.429	-7.33574	-30.1428	1.77108	50.4776	62.5685	-52.4779	13.414	-9.9295	-21.2629	0.0462048	0.000533964	0.662642	-1.89474	-0.938664	0.0565442	-3.78933	-1.8759	0.0819246	4.3952	21.0244	2.1439	-3.98E-16	-3.98E-16	-3.18E-15	-72.6364	7.03485	25.1257	-5.70218	19.0458	-3.04309	-22.039	5.01343	11.1333	-3.98E-16	-3.98E-16	-3.18E-15	54.4217	22.7667	4.36175	19.2867	-25.1782	120.625	-3.90543	4.33912	7.8907	-0.172718	-47.3109	8.09491	8.68472	47.5709	-23.5253	-13.308	-8.62162	-31.4997	1.35E-14	3.02E-14	9.54E-15
33.9524	92.3749	-238.224	-8.06575	-0.645995	149.046	-8.85047	-30.2523	0.602548	57.2095	63.7335	-59.9579	14.1199	-8.53508	-19.4872	0.0462048	0.000533964	0.662642	-1.84515	-0.762563	0.21348	-3.68796	-1.52881	0.402236	3.86127	21.5611	2.22463	-1.99E-16	7.95E-16	0.00E+00	-73.1382	7.79833	26.6144	-5.90127	17.9335	-3.3097	-22.2659	4.52429	10.6173	-1.99E-16	7.95E-16	0.00E+00	54.4721	22.7289	3.60387	20.2188	-25.7637	122.123	-4.56442	3.77439	8.78301	-1.64676	-44.7206	8.93775	12.7913	48.3201	-29.5775	-12.1455	-10.4843	-28.5536	1.51E-14	3.22E-14	0.00E+00
34.2885	91.3139	-238.344	-9.50147	-0.904647	148.121	-12.2719	-33.2025	-2.10878	64.7173	65.3253	-68.2906	15.2693	-5.95427	-18.6486	0.0462048	0.000533964	0.662642	-2.1842	-0.997356	0.0943252	-4.36776	-1.9948	0.150508	3.41537	20.9746	2.67872	-1.99E-16	1.99E-16	-3.18E-15	-73.4683	8.35573	26.3484	-5.95889	16.491	-3.31234	-21.6778	4.35135	10.2412	-1.99E-16	1.99E-16	-3.18E-15	54.7805	22.303	2.94384	21.3266	-25.7255	123.231	-5.12257	3.29209	9.683	-3.84745	-45.7698	7.31309	14.8051	49.8244	-31.908	-13.1623	-11.4524	-29.0043	1.59E-14	3.10E-14	9.54E-15
35.1757	90.3125	-239.326	-8.76909	-1.16331	145.263	-12.2072	-35.7727	-1.68406	72.1574	65.9399	-76.8348	16.1079	-1.94891	-19.0256	0.0462048	0.000533964	0.662642	-1.9485	-0.826116	0.734936	-3.8869	-1.67389	1.44148	3.28625	20.0433	2.83369	-8.83E-32	7.95E-16	6.36E-15	-73.8358	9.32562	25.2258	-5.58599	14.7895	-3.187	-20.4832	4.46103	10.1621	-8.83E-32	7.95E-16	6.36E-15	55.8763	21.5114	1.80936	22.0643	-24.9933	123.269	-5.75503	2.97203	10.4754	0.930665	-45.6625	10.1889	12.997	51.9619	-29.0415	-14.1393	-12.6271	-30.6784	1.43E-14	3.22E-14	6.36E-15
36.0122	89.7594	-239.712	-9.75327	-0.72844	144.657	-15.814	-39.3135	-3.45661	81.1853	65.2138	-87.5811	15.1345	0.308474	-19.7483	0.0462048	0.000533964	0.662642	-2.36892	-0.922906	0.629452	-4.72853	-1.8682	1.22038	3.25293	19.7032	3.0124	1.99E-16	3.98E-16	9.54E-15	-74.4378	10.837	24.1506	-4.88994	12.6952	-3.00371	-18.9002	4.78929	10.4803	1.99E-16	3.98E-16	9.54E-15	57.4913	21.4079	-0.15825	22.3785	-24.102	122.235	-6.53629	2.61077	11.0046	0.886101	-45.8261	9.54597	10.8529	53.874	-24.861	-14.6753	-12.2672	-32.6842	1.43E-14	3.06E-14	6.36E-15
36.9234	89.6477	-240.975	-9.64587	-0.460304	144.606	-19.1337	-41.5933	-5.75141	87.3408	63.4655	-94.9714	13.8981	0.899759	-20.2553	0.0462048	0.000533964	0.662642	-2.4498	-0.907015	0.324926	-4.89538	-1.82429	0.610827	3.10623	19.6592	3.4096	-1.99E-16	-3.98E-16	3.18E-15	-74.7032	12.4217	22.737	-4.34828	10.4715	-2.86332	-17.0521	5.42607	11.1273	-1.99E-16	-3.98E-16	3.18E-15	58.9826	21.7223	-2.68492	22.3826	-23.0625	120.3	-7.21348	2.25311	11.2607	0.5697	-45.0009	8.86603	11.1695	54.6295	-24.9493	-14.9792	-13.0769	-32.1481	1.43E-14	3.10E-14	9.54E-15
